<svg xmlns="http://www.w3.org/2000/svg" data-name="Layer 1" viewBox="0 0 100 125" x="0px" y="0px"><title>Thank you</title><path d="M88.91,80.16,71.49,71.45a2,2,0,0,0-1.78,0C65.44,67,64.53,59.14,63.9,53.71q-.09-.8-.18-1.5s0-.07,0-.1a10.33,10.33,0,0,0-1.58-4,6,6,0,0,1-1-2.63L58,24.68a5,5,0,0,0-8-3.44,5.07,5.07,0,0,0-3.19-1A5.12,5.12,0,0,0,42,24.76L38.9,45.42a6.14,6.14,0,0,1-1,2.65,10.33,10.33,0,0,0-1.58,4s0,.06,0,.1q-.09.7-.18,1.5c-.63,5.43-1.54,13.24-5.81,17.74a2,2,0,0,0-1.78,0L11.09,80.16A2,2,0,0,0,10,82V95.5a2,2,0,0,0,2,2H38.89a2,2,0,0,0,1.74-1l5-8.71a2,2,0,0,0-.13-2.19,5.76,5.76,0,0,1,.43-.43,8.29,8.29,0,0,0,4-2.09,8.29,8.29,0,0,0,4,2.09,5.76,5.76,0,0,1,.43.43,2,2,0,0,0-.13,2.19l5,8.71a2,2,0,0,0,1.74,1H88a2,2,0,0,0,2-2V82A2,2,0,0,0,88.91,80.16ZM37.74,93.5H14V83.18l12.93-6.46A12.8,12.8,0,0,0,32,86.49a14.1,14.1,0,0,0,8,3.13ZM48,79.14c0,.7-1.82,2-2.53,2.07-1.67,0-3.8,2.44-4.84,4.41a9.84,9.84,0,0,1-6.13-2.26,9,9,0,0,1-3.57-7.2c7.17-5.07,8.36-15.2,9.15-22,.05-.5.11-1,.16-1.43a6.54,6.54,0,0,1,1-2.58A10.23,10.23,0,0,0,42.86,46l3-20.61c.1-.53.36-1.17,1-1.19a1.18,1.18,0,0,1,1.08.71Zm4,0V24.94a1.16,1.16,0,0,1,1.08-.71c.67,0,.93.66,1,1.11l3.06,20.71a10.11,10.11,0,0,0,1.57,4.11,6.54,6.54,0,0,1,1,2.58c.05.46.11.93.16,1.43.79,6.79,2,16.92,9.15,22a9,9,0,0,1-3.57,7.2,9.83,9.83,0,0,1-6.12,2.26c-1-2-3.16-4.41-4.78-4.41h0C53.82,81.1,52,79.84,52,79.14ZM86,93.5H62.26L60,89.62a14.1,14.1,0,0,0,8-3.13,12.8,12.8,0,0,0,5.08-9.77L86,83.18Z"/><path d="M50,2.5a2.34,2.34,0,0,0-2.34,2.34V9.46a2.34,2.34,0,0,0,4.68,0V4.84A2.34,2.34,0,0,0,50,2.5Z"/><path d="M39.34,9.34a2.41,2.41,0,0,0-3.31,0,2.35,2.35,0,0,0,0,3.31l3.08,3.08a2.35,2.35,0,0,0,3.31,0,2.33,2.33,0,0,0,0-3.31Z"/><path d="M64,9.34a2.41,2.41,0,0,0-3.31,0l-3.08,3.08a2.34,2.34,0,0,0,1.65,4,2.37,2.37,0,0,0,1.66-.68L64,12.65A2.35,2.35,0,0,0,64,9.34Z"/><text x="0" y="115" fill="#000000" font-size="5px" font-weight="bold" font-family="'Helvetica Neue', Helvetica, Arial-Unicode, Arial, Sans-serif">Created by Rainbow Designs</text><text x="0" y="120" fill="#000000" font-size="5px" font-weight="bold" font-family="'Helvetica Neue', Helvetica, Arial-Unicode, Arial, Sans-serif">from the Noun Project</text></svg>